<?xml version="1.0" standalone="no"?>
<!DOCTYPE svg PUBLIC "-//W3C//DTD SVG 20010904//EN"
 "http://www.w3.org/TR/2001/REC-SVG-20010904/DTD/svg10.dtd">
<svg version="1.0" xmlns="http://www.w3.org/2000/svg"
 width="121.000000pt" height="121.000000pt" viewBox="0 0 121.000000 121.000000"
 preserveAspectRatio="xMidYMid meet">
<metadata>
Created by potrace 1.11, written by Peter Selinger 2001-2013
</metadata>
<g transform="translate(0.000000,121.000000) scale(0.100000,-0.100000)"
fill="#000000" stroke="none">
<path d="M547 1087 c-15 -12 -39 -24 -55 -25 -15 -1 -60 -18 -101 -37 -169
-80 -272 -248 -306 -495 -3 -25 -21 -73 -40 -106 -43 -80 -49 -117 -18 -128
11 -4 70 21 163 68 181 93 293 128 406 127 154 -1 233 -25 436 -129 123 -63
150 -73 163 -62 26 22 16 65 -33 142 -14 21 -27 57 -29 80 -29 275 -165 466
-377 529 -39 12 -80 30 -92 40 -29 26 -84 25 -117 -4z m93 -43 c0 -7 16 -16
38 -19 57 -10 121 -32 167 -60 60 -35 143 -129 176 -200 23 -49 68 -198 69
-227 0 -4 -37 11 -83 32 -280 129 -548 126 -818 -10 l-62 -32 8 48 c31 209
174 388 345 434 25 7 54 14 65 16 11 2 26 12 33 22 14 22 62 19 62 -4z m115
-438 c133 -26 297 -97 340 -148 14 -17 35 -48 46 -70 l20 -38 -131 65 c-147
74 -187 90 -280 110 -64 14 -215 14 -290 0 -64 -12 -191 -64 -298 -121 l-105
-56 33 58 c39 70 42 73 147 124 76 37 136 56 238 78 48 10 224 8 280 -2z"/>
<path d="M474 950 c-83 -42 -155 -137 -169 -225 l-6 -40 21 49 c38 89 93 156
174 210 46 31 37 34 -20 6z"/>
<path d="M747 926 c71 -52 123 -118 153 -191 20 -49 20 -49 15 -12 -10 77 -67
158 -150 214 -63 43 -78 34 -18 -11z"/>
<path d="M601 866 c-1 -53 2 -96 7 -96 11 0 13 162 2 179 -4 7 -8 -30 -9 -83z"/>
<path d="M196 348 c-32 -16 -61 -49 -52 -59 2 -2 7 -28 10 -57 6 -54 20 -91
34 -93 4 0 14 -2 22 -3 24 -5 129 -15 221 -22 79 -6 88 -5 108 15 14 14 20 32
19 56 -2 43 10 56 49 57 43 1 53 -8 53 -53 0 -26 7 -46 21 -60 19 -19 28 -21
103 -15 82 6 203 17 221 20 42 7 64 56 65 143 0 41 -2 44 -48 67 -45 23 -55
24 -177 19 -137 -5 -173 -16 -185 -59 -4 -15 -14 -19 -50 -19 -39 0 -47 3 -57
27 -6 14 -20 31 -30 36 -10 6 -79 12 -154 14 -119 4 -142 2 -173 -14z m195
-28 c53 -2 103 -6 110 -11 16 -10 22 -114 8 -141 -9 -16 -18 -18 -52 -14 -23
3 -78 8 -122 11 -139 10 -133 7 -141 82 -8 75 -2 82 60 78 22 -2 84 -4 137 -5z
m632 1 c12 -1 -1 -123 -13 -135 -11 -11 -12 -12 -115 -20 -44 -4 -103 -9 -131
-12 -37 -4 -53 -2 -56 8 -9 22 -7 132 2 143 5 6 53 11 106 13 54 2 99 4 101 5
2 2 91 1 106 -2z"/>
</g>
</svg>
